<?xml version="1.0" encoding="UTF-8"?>
<svg enable-background="new 0 0 30.253 50.243" viewBox="0 0 30.253 50.243" xmlns="http://www.w3.org/2000/svg">
 <defs>
  <linearGradient id="b" x1="10.947" x2="26.968" gradientUnits="userSpaceOnUse">
   <stop stop-color="#a7873d" offset="0"/>
   <stop stop-color="#663624" offset="1"/>
  </linearGradient>
  <linearGradient id="a" x1="10.918" x2="26.939" gradientUnits="userSpaceOnUse">
   <stop stop-color="#a7873d" offset="0"/>
   <stop stop-color="#663624" offset="1"/>
  </linearGradient>
 </defs>
 <path d="m.697,4.347c0,15.548 13.34,13.222 13.34,20.812 0,6.979-13.195,4.041-13.195,20.813h28.856c0-16.712-13.775-13.736-13.775-20.813 0-7.534 13.605-7.534 13.701-20.812h-28.927z" fill="#ddd" stroke="#000" stroke-width="1.0385"/>
 <path d="m1.956,44.819c2.164.067 24.894.067 26.585.067 .067-.54-.135-3.99-1.557-7.373l-23.405-.067c-1.759,3.653-1.69,7.509-1.623,7.373z" fill="#b5ab93"/>
 <path d="m4.797,13.973c5.412.339 13.868.541 19.212.067-.136,1.895-8.998,5.345-9.065,9.605-.068-4.26-9.606-7.17-10.147-9.672z" fill="#b5ab93"/>
 <path d="m.38.38h29.493v4.062h-29.493z" fill="url(#b)" stroke="#000" stroke-width=".7594"/>
 <path d="m.38,45.801h29.493v4.062h-29.493z" fill="url(#a)" stroke="#000" stroke-width=".7594"/>
 <path d="m4.003 6.02h6.088c0 10.932 4.687 11.253 5.173 17.354-2.086-7.291-10.575-7.364-11.261-17.354z" fill="#fff" opacity=".6"/>
 <path d="m3.722 45.108h6.088c-1.663-11.188 4.687-10.673 5.172-18.202-2.086 7.291-12.119 5.14-11.26 18.202z" fill="#fff" opacity=".6"/>
</svg>
